:FULLY-SPECIFIED
:FORCE-ALL-JOINTS-BE-3DOF
:DEGREES
408
root 4.48302 16.2918 -10.9947 3.33555 -38.475 -3.98419
lfemur -26.538 1.34306 -6.14999
ltibia 41.6351 0 0
lfoot -10.8721 15.7606 0
ltoes -1.76083 0 0
rfemur -34.8148 -16.4719 21.2044
rtibia 72.0812 0 0
rfoot 7.20846 -0.296429 0
rtoes 29.7109 0 0
lowerback 4.99879 4.22331 1.13847
upperback 1.72113 5.64892 -1.59845
thorax -0.756376 2.82435 -2.56479
lowerneck -6.09274 2.69638 8.16643
upperneck 4.55667 2.88813 -0.00582561
head 2.69895 1.57293 -1.31207
lclavicle -4.15423e-14 5.58855e-15 0
lhumerus -45.2614 -18.5216 94.371
lradius 49.5313 0 0
lwrist 17.5452 0 0
lhand -16.2361 3.28879 0
lfingers 7.12502 0 0
lthumb 9.9718 33.0176 0
rclavicle -4.15423e-14 5.58855e-15 0
rhumerus -46.0008 9.39906 -91.1089
rradius 63.7605 0 0
rwrist 9.2526 0 0
rhand -22.5654 -17.7725 0
rfingers 7.12502 0 0
rthumb 3.86276 -767.684 0
409
root 4.46108 16.2836 -10.9304 3.1934 -38.9845 -3.84419
lfemur -26.1095 1.68317 -6.29141
ltibia 42.2325 0 0
lfoot -11.4463 15.6248 0
ltoes -1.71719 0 0
rfemur -36.0585 -16.02 20.5157
rtibia 71.5702 0 0
rfoot 7.61274 -0.0186678 0
rtoes 29.8422 0 0
lowerback 5.14438 4.16816 1.17511
upperback 1.76148 5.57709 -1.63351
thorax -0.793339 2.78844 -2.62689
lowerneck -6.10119 2.91161 8.33662
upperneck 4.62033 3.17341 -0.273437
head 2.74549 1.71135 -1.41792
lclavicle -4.44402e-14 8.42893e-15 0
lhumerus -45.2808 -18.4649 94.4007
lradius 49.3037 0 0
lwrist 17.3993 0 0
lhand -16.5993 3.07771 0
lfingers 7.12502 0 0
lthumb 9.62125 32.8202 0
rclavicle -4.44402e-14 8.42893e-15 0
rhumerus -45.99 9.25175 -90.8946
rradius 64.2118 0 0
rwrist 9.42314 0 0
rhand -23.062 -17.7456 0
rfingers 7.12502 0 0
rthumb 3.38317 -767.663 0
410
root 4.43968 16.2748 -10.8748 3.06897 -39.4046 -3.72094
lfemur -25.7518 2.09211 -6.44367
ltibia 42.8859 0 0
lfoot -12.0324 15.4259 0
ltoes -1.64485 0 0
rfemur -37.2506 -15.5084 19.8357
rtibia 70.9333 0 0
rfoot 7.91746 0.248892 0
rtoes 29.8585 0 0
lowerback 5.29212 4.10507 1.22288
upperback 1.80335 5.49537 -1.66001
thorax -0.830267 2.74761 -2.68604
lowerneck -6.11423 3.11606 8.49345
upperneck 4.66785 3.44545 -0.538001
head 2.78696 1.84277 -1.52092
lclavicle -4.71535e-14 1.12644e-14 0
lhumerus -45.2796 -18.4294 94.4313
lradius 49.0933 0 0
lwrist 17.2415 0 0
lhand -16.9851 2.85679 0
lfingers 7.12502 0 0
lthumb 9.24892 32.6136 0
rclavicle -4.71535e-14 1.12644e-14 0
rhumerus -45.9609 9.10354 -90.6852
rradius 64.6537 0 0
rwrist 9.60152 0 0
rhand -23.541 -17.7327 0
rfingers 7.12502 0 0
rthumb 2.92061 -767.656 0
411
root 4.41675 16.265 -10.8252 2.96136 -39.7185 -3.61905
lfemur -25.4684 2.56303 -6.59582
ltibia 43.593 0 0
lfoot -12.6326 15.16 0
ltoes -1.55828 0 0
rfemur -38.3761 -14.9448 19.1603
rtibia 70.1784 0 0
rfoot 8.12451 0.495993 0
rtoes 29.726 0 0
lowerback 5.44092 4.03438 1.2814
upperback 1.84554 5.40423 -1.67765
thorax -0.867854 2.70207 -2.74167
lowerneck -6.13155 3.30811 8.63637
upperneck 4.69933 3.70203 -0.797615
head 2.82309 1.96613 -1.62043
lclavicle -4.96438e-14 1.407e-14 0
lhumerus -45.2582 -18.4182 94.4647
lradius 48.9019 0 0
lwrist 17.0688 0 0
lhand -17.388 2.6268 0
lfingers 7.12502 0 0
lthumb 8.86008 32.3987 0
rclavicle -4.96438e-14 1.407e-14 0
rhumerus -45.9193 8.9474 -90.4806
rradius 65.0858 0 0
rwrist 9.78709 0 0
rhand -24.0074 -17.739 0
rfingers 7.12502 0 0
rthumb 2.47011 -767.667 0
412
root 4.39022 16.2534 -10.7791 2.86962 -39.9097 -3.54309
lfemur -25.2628 3.0891 -6.73692
ltibia 44.3515 0 0
lfoot -13.2493 14.8231 0
ltoes -1.47195 0 0
rfemur -39.4202 -14.3369 18.4851
rtibia 69.3134 0 0
rfoot 8.23577 0.712379 0
rtoes 29.411 0 0
lowerback 5.58971 3.95643 1.35026
upperback 1.88683 5.30417 -1.68612
thorax -0.906796 2.65205 -2.79321
lowerneck -6.15287 3.48614 8.76482
upperneck 4.71483 3.94095 -1.05037
head 2.85362 2.08037 -1.71581
lclavicle -5.18729e-14 1.68208e-14 0
lhumerus -45.2166 -18.4344 94.5027
lradius 48.7312 0 0
lwrist 16.8782 0 0
lhand -17.8025 2.38853 0
lfingers 7.12502 0 0
lthumb 8.46004 32.1759 0
rclavicle -5.18729e-14 1.68208e-14 0
rhumerus -45.8709 8.77634 -90.2808
rradius 65.5078 0 0
rwrist 9.97921 0 0
rhand -24.4666 -17.7701 0
rfingers 7.12502 0 0
rthumb 2.02666 -767.702 0
413
root 4.35804 16.2396 -10.7338 2.79284 -39.9612 -3.49768
lfemur -25.1382 3.66347 -6.85602
ltibia 45.1593 0 0
lfoot -13.8846 14.4115 0
ltoes -1.40035 0 0
rfemur -40.3681 -13.6923 17.8058
rtibia 68.3462 0 0
rfoot 8.25312 0.887792 0
rtoes 28.8797 0 0
lowerback 5.73741 3.87155 1.4291
upperback 1.926 5.19568 -1.68512
thorax -0.947786 2.59774 -2.84008
lowerneck -6.17788 3.64854 8.87824
upperneck 4.71446 4.15997 -1.29437
head 2.87827 2.18443 -1.80643
lclavicle -5.38026e-14 1.94917e-14 0
lhumerus -45.1551 -18.4811 94.5473
lradius 48.5831 0 0
lwrist 16.6666 0 0
lhand -18.2232 2.14276 0
lfingers 7.12502 0 0
lthumb 8.05409 31.9459 0
rclavicle -5.38026e-14 1.94917e-14 0
rhumerus -45.8214 8.58332 -90.0858
rradius 65.9194 0 0
rwrist 10.1772 0 0
rhand -24.9235 -17.8314 0
rfingers 7.12502 0 0
rthumb 1.5853 -767.766 0
